<svg xmlns="http://www.w3.org/2000/svg" viewBox="0 8.859999656677246 169.6300048828125 46.93000030517578" data-asc="0.9052734375"><g fill="#4b5c9b"><g fill="#4b5c9b" transform="translate(0, 0)"><path d="M0 33.76L4.47 33.37Q4.79 36.06 5.94 37.78Q7.10 39.50 9.55 40.56Q11.99 41.63 15.04 41.63Q17.75 41.63 19.82 40.82Q21.90 40.01 22.91 38.61Q23.93 37.21 23.93 35.55Q23.93 33.86 22.95 32.60Q21.97 31.35 19.73 30.49Q18.29 29.93 13.35 28.75Q8.42 27.56 6.45 26.51Q3.88 25.17 2.62 23.18Q1.37 21.19 1.37 18.73Q1.37 16.02 2.91 13.66Q4.44 11.30 7.40 10.08Q10.35 8.86 13.96 8.86Q17.94 8.86 20.98 10.14Q24.02 11.43 25.66 13.92Q27.29 16.41 27.42 19.56L22.88 19.90Q22.51 16.50 20.40 14.77Q18.29 13.04 14.16 13.04Q9.86 13.04 7.90 14.61Q5.93 16.19 5.93 18.41Q5.93 20.34 7.32 21.58Q8.69 22.83 14.47 24.13Q20.24 25.44 22.39 26.42Q25.51 27.86 27.00 30.07Q28.49 32.28 28.49 35.16Q28.49 38.01 26.86 40.54Q25.22 43.07 22.16 44.47Q19.09 45.87 15.26 45.87Q10.40 45.87 7.12 44.46Q3.83 43.04 1.97 40.20Q0.10 37.35 0 33.76ZM34.42 14.53L34.42 9.47L38.82 9.47L38.82 14.53L34.42 14.53M34.42 45.26L34.42 19.34L38.82 19.34L38.82 45.26L34.42 45.26ZM55.10 41.33L55.74 45.21Q53.88 45.61 52.42 45.61Q50.02 45.61 48.71 44.85Q47.39 44.09 46.85 42.86Q46.31 41.63 46.31 37.67L46.31 22.75L43.09 22.75L43.09 19.34L46.31 19.34L46.31 12.92L50.68 10.28L50.68 19.34L55.10 19.34L55.10 22.75L50.68 22.75L50.68 37.92Q50.68 39.79 50.92 40.33Q51.15 40.87 51.67 41.19Q52.20 41.50 53.17 41.50Q53.91 41.50 55.10 41.33ZM77.15 36.91L81.69 37.48Q80.62 41.46 77.71 43.65Q74.80 45.85 70.29 45.85Q64.60 45.85 61.27 42.35Q57.93 38.84 57.93 32.52Q57.93 25.98 61.30 22.36Q64.67 18.75 70.04 18.75Q75.24 18.75 78.54 22.29Q81.84 25.83 81.84 32.25Q81.84 32.64 81.81 33.42L62.48 33.42Q62.72 37.70 64.89 39.97Q67.07 42.24 70.31 42.24Q72.73 42.24 74.44 40.97Q76.15 39.70 77.15 36.91M62.72 29.81L77.20 29.81Q76.90 26.54 75.54 24.90Q73.44 22.36 70.09 22.36Q67.07 22.36 65.00 24.39Q62.94 26.42 62.72 29.81ZM87.57 45.26L87.57 9.47L101.00 9.47Q105.10 9.47 107.58 10.56Q110.06 11.65 111.46 13.90Q112.87 16.16 112.87 18.63Q112.87 20.92 111.62 22.95Q110.38 24.98 107.86 26.22Q111.11 27.17 112.85 29.47Q114.60 31.76 114.60 34.89Q114.60 37.40 113.54 39.56Q112.48 41.72 110.91 42.90Q109.35 44.07 106.99 44.67Q104.64 45.26 101.22 45.26L87.57 45.26M92.31 24.51L100.05 24.51Q103.20 24.51 104.57 24.10Q106.37 23.56 107.29 22.31Q108.20 21.07 108.20 19.19Q108.20 17.41 107.35 16.05Q106.49 14.70 104.91 14.20Q103.32 13.70 99.46 13.70L92.31 13.70L92.31 24.51M92.31 41.04L101.22 41.04Q103.52 41.04 104.44 40.87Q106.08 40.58 107.18 39.89Q108.28 39.21 108.98 37.90Q109.69 36.60 109.69 34.89Q109.69 32.89 108.67 31.41Q107.64 29.93 105.82 29.33Q104.00 28.74 100.59 28.74L92.31 28.74L92.31 41.04ZM137.48 42.07Q135.03 44.14 132.78 45.00Q130.52 45.85 127.93 45.85Q123.66 45.85 121.36 43.76Q119.07 41.67 119.07 38.43Q119.07 36.52 119.93 34.95Q120.80 33.37 122.20 32.42Q123.61 31.47 125.37 30.98Q126.66 30.64 129.27 30.32Q134.59 29.69 137.11 28.81Q137.13 27.91 137.13 27.66Q137.13 24.98 135.89 23.88Q134.20 22.39 130.88 22.39Q127.78 22.39 126.31 23.47Q124.83 24.56 124.12 27.32L119.82 26.73Q120.41 23.97 121.75 22.28Q123.10 20.58 125.63 19.67Q128.17 18.75 131.52 18.75Q134.84 18.75 136.91 19.53Q138.99 20.31 139.97 21.50Q140.94 22.68 141.33 24.49Q141.55 25.61 141.55 28.54L141.55 34.40Q141.55 40.53 141.83 42.15Q142.11 43.77 142.94 45.26L138.35 45.26Q137.67 43.90 137.48 42.07M137.11 32.25Q134.72 33.23 129.93 33.91Q127.22 34.30 126.10 34.79Q124.98 35.28 124.37 36.22Q123.75 37.16 123.75 38.31Q123.75 40.06 125.09 41.24Q126.42 42.41 128.98 42.41Q131.52 42.41 133.50 41.30Q135.47 40.19 136.40 38.26Q137.11 36.77 137.11 33.86L137.11 32.25ZM148.17 55.25L147.68 51.12Q149.12 51.51 150.20 51.51Q151.66 51.51 152.54 51.03Q153.42 50.54 153.98 49.66Q154.39 49.00 155.32 46.39Q155.44 46.02 155.71 45.31L145.87 19.34L150.61 19.34L156.01 34.35Q157.06 37.21 157.89 40.36Q158.64 37.33 159.69 34.45L165.23 19.34L169.63 19.34L159.77 45.70Q158.18 49.98 157.30 51.59Q156.13 53.76 154.61 54.77Q153.10 55.79 151.00 55.79Q149.73 55.79 148.17 55.25Z"/></g></g></svg>