<svg xmlns="http://www.w3.org/2000/svg" version="1.0" width="150.000000pt" height="150.000000pt" viewBox="0 0 150.000000 150.000000" preserveAspectRatio="xMidYMid meet">
<g transform="translate(0.000000,150.000000) scale(0.100000,-0.100000)" fill="#000000" stroke="none">
<path d="M633 1300 c-223 -40 -396 -203 -448 -421 -83 -353 207 -697 569 -674 90 6 136 19 221 62 148 74 245 161 334 297 45 70 117 223 109 232 -3 2 -23 -24 -46 -59 -48 -72 -127 -161 -116 -132 3 11 9 68 12 126 5 119 -8 179 -60 283 -39 78 -153 192 -229 229 -105 52 -243 75 -346 57z m156 -111 c38 -14 39 -23 3 -38 -40 -17 -101 8 -102 42 0 11 63 9 99 -4z m-133 -24 c10 -42 -11 -57 -70 -50 -84 12 -88 20 -26 49 70 33 88 33 96 1z m437 -65 c63 -67 114 -165 123 -235 6 -41 4 -49 -21 -75 -24 -25 -34 -29 -74 -26 -42 4 -48 8 -78 53 l-32 48 19 55 c23 66 25 130 6 193 -8 26 -10 47 -6 47 4 0 33 -27 63 -60z m-193 4 c26 -42 41 -100 34 -131 -5 -20 -9 -19 -75 25 -56 38 -69 52 -69 74 0 18 9 32 33 47 44 28 52 27 77 -15z m-366 -25 c42 -6 83 -18 93 -25 17 -13 16 -16 -14 -44 -18 -16 -33 -32 -33 -35 0 -9 -85 -130 -95 -135 -6 -3 -17 29 -25 70 -8 41 -19 75 -24 75 -5 0 -18 -13 -30 -28 -30 -41 -29 -154 2 -216 19 -38 20 -49 11 -82 -10 -31 -40 -59 -64 -59 -3 0 -14 32 -26 71 -29 94 -24 201 13 279 25 55 92 140 108 140 5 0 43 -5 84 -11z m168 -88 c18 -7 29 -26 46 -78 27 -85 27 -83 1 -83 -35 0 -89 31 -115 66 l-26 33 29 36 c31 39 32 39 65 26z m135 -30 c33 -21 64 -44 68 -50 8 -14 -51 -71 -74 -71 -11 1 -24 24 -42 80 -15 44 -23 80 -19 80 4 0 34 -18 67 -39z m-150 -165 c21 -14 53 -28 71 -32 20 -4 32 -12 32 -23 0 -9 3 -40 6 -68 l7 -53 -41 0 c-67 0 -147 36 -202 91 -28 28 -50 55 -50 62 0 7 18 41 41 76 l40 63 29 -45 c16 -25 46 -57 67 -71z m328 -16 c20 -32 23 -45 17 -82 -7 -39 -13 -46 -62 -75 -52 -32 -90 -42 -90 -25 0 5 12 14 26 21 36 16 27 22 -19 11 -44 -9 -43 -11 -51 70 l-6 55 49 18 c27 9 59 26 72 36 28 23 33 21 64 -29z m212 -77 c-6 -58 -33 -150 -48 -167 -4 -5 -13 10 -19 33 -10 37 -9 45 10 68 11 14 20 39 20 56 0 26 23 67 38 67 3 0 2 -26 -1 -57z m-730 -73 c40 -31 129 -60 188 -60 47 0 55 -3 55 -19 0 -23 -26 -31 -111 -31 -99 0 -129 8 -140 39 -6 14 -17 31 -25 38 -10 7 -13 19 -9 32 8 26 11 26 42 1z m604 -28 c4 -4 14 -31 22 -60 l15 -52 -27 -19 c-44 -31 -124 -68 -185 -86 -49 -14 -60 -15 -67 -4 -14 22 -10 87 5 96 7 4 20 21 28 37 19 37 143 106 178 99 14 -2 28 -7 31 -11z m-550 -121 c36 -5 97 -6 135 -2 97 10 124 -5 124 -73 l0 -49 -70 7 c-112 11 -270 77 -270 114 0 14 -4 14 81 3z"/>
</g>
</svg>